<svg width="246" height="270" viewBox="0 0 246 270" fill="none" xmlns="http://www.w3.org/2000/svg">
<path d="M102.888 46.7966C102.728 46.7966 102.648 46.7164 102.888 46.7966V46.7966Z" fill="#231F20"/>
<path d="M144.97 110.008C145.435 110.475 146.563 109.491 146.796 108.733C148.124 104.315 149.504 99.9153 150.935 95.532C151.968 92.3685 153.015 89.205 154.165 86.0561C154.528 85.0575 154.892 83.2789 155.576 82.4115C156.754 80.9537 155.474 81.6826 157.111 81.6826C159.897 81.6826 164.087 84.4306 166.626 85.5604C168.386 86.355 172.234 87.2515 173.507 88.7385C173.885 89.1831 172.365 90.5389 171.747 92.1279C170.709 94.8006 169.71 97.4952 168.75 100.212C166.851 105.649 165.156 111.145 163.614 116.693C163.49 117.144 163.854 119.215 164.189 119.499L144.97 110.008Z" fill="#EF3100"/>
<path d="M92.0199 83.0384C95.7589 71.055 100.138 59.0934 103.244 46.935C103.448 47.0298 103.717 47.1683 104.081 47.3724C105.829 48.2349 107.621 49.0061 109.449 49.6831C113.028 51.2284 116.949 52.5186 120.361 54.3919C122.645 55.6456 121.706 54.7928 120.564 57.5773C119.051 61.2219 118.193 65.3621 116.927 69.1452C114.476 76.5729 112.003 83.9714 109.878 91.5011C104.008 88.5198 98.0358 85.5896 92.0199 83.0384Z" fill="#F89F00"/>
<path d="M95.4316 212.83C96.4063 212.83 96.9956 212.101 98.0576 210.81C99.1197 209.52 102.48 204.979 102.153 201.437C101.215 199.578 98.1812 198.084 95.7371 196.874C95.0096 196.509 94.3331 196.145 93.8312 195.882C89.9976 193.695 85.8295 191.436 80.8029 188.841C80.0754 188.455 79.2025 187.93 78.2786 187.383C75.8999 185.925 73.1866 184.278 71.077 184.139C68.32 184.139 64.5301 189.46 61.8677 193.469C69.1421 198.164 75.689 202.151 81.894 205.817C82.8615 206.393 83.8363 206.998 84.8038 207.603C87.634 209.474 90.6232 211.091 93.7366 212.436C94.2679 212.673 94.8368 212.813 95.417 212.851L95.4316 212.83Z" fill="#231F20"/>
<path d="M79.4935 137.197C80.1191 137.197 81.9522 135.477 83.2979 133.895C84.1563 132.875 86.135 130.331 85.8658 128.793C85.4293 126.139 78.4605 123.391 76.9839 123.304C75.238 123.304 70.4369 130.258 70.3568 131.81C70.3688 131.964 70.4109 132.114 70.4808 132.252C70.5507 132.389 70.647 132.512 70.7642 132.612C72.3282 134.354 78.5987 137.182 79.4935 137.233V137.197Z" fill="#231F20"/>
<path d="M71.9062 147.817C72.0988 147.842 72.2945 147.818 72.4752 147.746C72.6558 147.675 72.8155 147.559 72.9392 147.409C73.3175 146.841 74.0449 145.951 74.8524 145.033C76.5837 143.006 78.5332 140.71 78.2568 139.763C77.8713 138.414 71.899 134.544 69.5276 134.42C66.9889 134.42 63.5044 140.178 62.7333 142.008C62.6844 142.179 62.6788 142.36 62.7169 142.535C62.755 142.709 62.8356 142.871 62.9516 143.006C64.1955 144.894 69.6512 147.817 71.9208 147.817H71.9062Z" fill="#231F20"/>
<path d="M62.6025 157.701C62.7887 157.726 62.978 157.703 63.1533 157.636C63.3286 157.568 63.4843 157.458 63.6063 157.315C64.1844 156.523 64.8035 155.761 65.4612 155.034C67.1271 153.102 69.0257 150.923 68.7493 150.004C68.3564 148.67 62.6315 145.033 60.2673 144.902C57.8304 144.902 54.4479 150.39 53.6695 152.14C53.6246 152.301 53.6204 152.47 53.6572 152.633C53.694 152.796 53.7708 152.947 53.8805 153.073C55.0662 154.895 60.3692 157.701 62.6097 157.701H62.6025Z" fill="#231F20"/>
<path d="M117.291 170.421C117.975 170.421 120.15 167.454 121.466 165.319C122.194 164.174 123.816 161.426 123.445 160.661C122.827 159.327 116.171 155.121 114.541 155.026C112.774 155.026 107.951 162.221 107.856 163.832C107.762 165.443 116.214 170.326 117.313 170.392L117.291 170.421Z" fill="#231F20"/>
<path d="M102.4 162.447C102.651 162.462 102.902 162.412 103.128 162.301C104.925 161.339 108.947 155.741 108.504 154.283C108.06 152.825 102.219 148.852 99.7744 148.714C97.1702 148.714 93.7512 154.932 93.1038 156.528C93.0491 156.72 93.0438 156.923 93.0883 157.118C93.1328 157.313 93.2257 157.494 93.3583 157.643C94.6605 159.589 100.087 162.483 102.422 162.483L102.4 162.447Z" fill="#231F20"/>
<path d="M130.341 177.637C130.533 177.662 130.729 177.637 130.908 177.564C131.088 177.492 131.246 177.374 131.367 177.222C131.745 176.646 132.487 175.764 133.287 174.831C135.011 172.805 136.924 170.516 136.684 169.568C136.284 168.169 130.385 164.364 127.955 164.225C125.438 164.225 121.939 169.991 121.146 171.821C121.101 171.993 121.098 172.174 121.137 172.348C121.176 172.521 121.257 172.683 121.372 172.819C122.623 174.707 128.079 177.637 130.356 177.637H130.341Z" fill="#231F20"/>
<path d="M144.461 185.575C145.086 185.575 146.927 183.862 148.265 182.281C149.131 181.26 151.109 178.709 150.84 177.134C150.404 174.481 143.435 171.733 141.951 171.646C140.198 171.646 135.404 178.6 135.331 180.152C135.355 180.46 135.495 180.747 135.724 180.954C137.288 182.696 143.573 185.524 144.453 185.575H144.461Z" fill="#231F20"/>
<path d="M158.311 193.214C158.52 193.218 158.726 193.173 158.915 193.083C160.682 192.179 165.775 186.253 165.367 184.839C164.96 183.425 159.009 179.627 156.638 179.496C154.019 179.496 150.629 185.437 149.982 186.946C149.926 187.174 149.925 187.413 149.981 187.641C150.037 187.87 150.147 188.081 150.302 188.258C151.67 190.342 156.318 193.214 158.304 193.214H158.311Z" fill="#231F20"/>
<path d="M149.727 204.848C149.978 204.863 150.228 204.816 150.455 204.709C152.252 203.755 156.274 198.149 155.83 196.655C155.387 195.161 149.531 191.224 147.101 191.093C144.504 191.093 141.085 197.318 140.431 198.907C140.378 199.099 140.374 199.3 140.418 199.493C140.463 199.687 140.554 199.866 140.685 200.015C141.987 201.961 147.407 204.848 149.749 204.848H149.727Z" fill="#231F20"/>
<path d="M136.423 197.479C136.618 197.504 136.817 197.48 137.002 197.409C137.186 197.337 137.349 197.221 137.477 197.07C138.107 196.199 138.782 195.362 139.5 194.563C141.296 192.493 143.326 190.138 143.035 189.169C142.613 187.711 136.488 183.833 133.927 183.687C131.272 183.687 127.65 189.584 126.842 191.465C126.794 191.636 126.787 191.816 126.824 191.99C126.861 192.164 126.94 192.327 127.053 192.464C128.341 194.41 134.037 197.428 136.437 197.428L136.423 197.479Z" fill="#231F20"/>
<path d="M122.252 189.825C122.503 189.838 122.753 189.788 122.98 189.679C124.769 188.724 128.748 183.119 128.348 181.617C127.948 180.116 121.998 176.187 119.619 176.063C117.022 176.063 113.603 182.288 112.955 183.87C112.902 184.061 112.895 184.263 112.937 184.457C112.979 184.652 113.068 184.833 113.196 184.985C114.498 186.924 119.924 189.825 122.274 189.825H122.252Z" fill="#231F20"/>
<path d="M107.747 182.733C107.945 182.76 108.147 182.735 108.333 182.661C108.519 182.587 108.683 182.466 108.809 182.31C109.202 181.727 109.973 180.852 110.81 179.861C112.614 177.798 114.643 175.443 114.345 174.474C113.937 173.089 107.711 169.124 105.237 169C102.604 169 98.9669 174.889 98.1521 176.77C98.1036 176.94 98.0974 177.119 98.1342 177.292C98.171 177.465 98.2495 177.626 98.363 177.761C99.6433 179.715 105.346 182.733 107.747 182.733Z" fill="#231F20"/>
<path d="M93.4165 175.385C94.0858 175.385 96.2099 172.469 97.4974 170.45C98.2249 169.269 99.9416 166.448 99.5706 165.654C98.9523 164.327 92.2962 160.114 90.6522 160.027C88.8918 160.027 84.069 167.221 83.9817 168.832C83.8944 170.443 92.3399 175.327 93.3947 175.392L93.4165 175.385Z" fill="#231F20"/>
<path d="M86.004 154.771C86.255 154.786 86.5056 154.736 86.7314 154.625C88.5282 153.671 92.5073 148.065 92.1072 146.607C91.7071 145.15 85.8149 141.177 83.378 141.038C80.7665 141.038 77.3912 147.19 76.7075 148.845C76.6532 149.038 76.6474 149.242 76.6905 149.437C76.7336 149.633 76.8244 149.815 76.9548 149.968C78.2641 151.914 83.6835 154.8 86.0259 154.8L86.004 154.771Z" fill="#231F20"/>
<path d="M78.024 165.953C78.6496 165.953 80.49 164.24 81.8358 162.651C82.6869 161.63 84.6728 159.094 84.4036 157.548C83.9672 154.873 76.9984 152.147 75.5144 152.067C73.7613 152.067 68.9674 159.006 68.8947 160.559C68.9198 160.868 69.06 161.157 69.2875 161.368C70.8588 163.11 77.1365 165.946 78.0167 165.989L78.024 165.953Z" fill="#231F20"/>
<path d="M94.8642 143.539C95.0558 143.566 95.2512 143.542 95.4311 143.471C95.6109 143.399 95.7691 143.282 95.8899 143.13C96.2681 142.562 97.0029 141.709 97.803 140.761C99.5343 138.735 101.484 136.432 101.207 135.484C100.815 134.099 94.9151 130.28 92.4782 130.141C89.954 130.141 86.4477 135.907 85.6694 137.729C85.6215 137.901 85.6171 138.083 85.6564 138.257C85.6958 138.431 85.7777 138.593 85.8949 138.728C87.1388 140.616 92.5946 143.539 94.8714 143.539H94.8642Z" fill="#231F20"/>
<path d="M109.318 150.981C109.929 150.981 111.792 149.253 113.159 147.635C114.01 146.629 115.967 144.107 115.698 142.533C115.254 139.872 108.3 137.117 106.816 137.037C105.07 137.037 100.269 143.983 100.189 145.543C100.109 147.103 108.416 150.908 109.296 150.966L109.318 150.981Z" fill="#231F20"/>
<path d="M124.747 158.117C125.351 158.117 127.206 156.404 128.559 154.8C129.417 153.787 131.396 151.258 131.127 149.698C130.69 147.045 123.721 144.289 122.238 144.202C120.492 144.202 115.691 151.156 115.618 152.708C115.627 152.862 115.666 153.013 115.734 153.152C115.801 153.291 115.895 153.415 116.011 153.517C117.582 155.252 123.852 158.08 124.74 158.132L124.747 158.117Z" fill="#231F20"/>
<path d="M138.67 165.596C139.878 165.596 145.479 156.958 145.537 156.849C144.897 155.267 137.637 151.119 135.935 151.017C134.051 151.017 128.894 158.306 128.806 159.881C128.763 160.836 131.229 162.294 133.316 163.365C135.017 164.275 136.806 165.008 138.656 165.552L138.67 165.596Z" fill="#231F20"/>
<path d="M152.957 173.351C153.207 173.357 153.456 173.307 153.685 173.206C155.656 172.2 160.02 166.303 159.584 164.75C159.148 163.197 152.644 159.028 149.967 158.919C147.101 158.919 143.37 165.435 142.693 167.112C142.637 167.299 142.629 167.497 142.67 167.688C142.711 167.879 142.799 168.057 142.926 168.205C144.264 170.246 150.353 173.388 152.964 173.388L152.957 173.351Z" fill="#231F20"/>
<path d="M167.048 180.99C168.241 180.99 173.754 172.491 173.805 172.411C173.18 170.851 166.051 166.784 164.349 166.696C162.494 166.696 157.424 173.811 157.336 175.443C157.249 177.164 166.066 180.969 167.004 181.027L167.048 180.99Z" fill="#231F20"/>
<path d="M180.141 189.366C180.978 189.366 183.509 185.196 186.135 180.692C186.477 180.094 186.725 179.664 186.819 179.518C186.172 177.914 178.817 173.687 177.086 173.606C175.158 173.606 169.921 180.961 169.812 182.601C169.724 184.373 178.948 189.307 180.105 189.366H180.141Z" fill="#231F20"/>
<path d="M171.368 200.081C171.561 200.107 171.757 200.083 171.938 200.012C172.119 199.94 172.279 199.824 172.401 199.673C172.998 198.848 173.637 198.055 174.315 197.296C176.039 195.263 177.988 192.967 177.719 192.019C177.341 190.678 171.361 186.814 168.99 186.683C166.48 186.683 162.974 192.442 162.181 194.271C162.134 194.443 162.129 194.624 162.167 194.797C162.205 194.971 162.285 195.134 162.399 195.27C163.658 197.165 169.113 200.081 171.383 200.081H171.368Z" fill="#231F20"/>
<path d="M163.265 214.244C164.094 214.244 166.633 210.074 169.244 205.577C169.594 204.972 169.834 204.549 169.935 204.396C169.288 202.792 161.934 198.565 160.195 198.484C158.275 198.484 153.037 205.839 152.921 207.487C152.958 207.849 153.129 208.185 153.401 208.427C155.212 210.439 162.217 214.193 163.221 214.258L163.265 214.244Z" fill="#231F20"/>
<path d="M154.492 224.966C154.683 224.992 154.878 224.968 155.058 224.896C155.238 224.825 155.396 224.708 155.518 224.558C156.12 223.729 156.763 222.931 157.445 222.167C159.162 220.141 161.082 217.859 160.835 216.912C160.42 215.512 154.521 211.7 152.106 211.568C149.567 211.568 146.083 217.327 145.312 219.164C145.263 219.335 145.257 219.516 145.295 219.691C145.333 219.865 145.414 220.027 145.53 220.162C146.767 222.043 152.23 224.966 154.514 224.966H154.492Z" fill="#231F20"/>
<path d="M141.435 217.75C142.104 217.75 144.25 214.834 145.559 212.764C146.286 211.598 147.96 208.799 147.589 208.026C146.963 206.692 140.314 202.479 138.67 202.391C136.917 202.391 132.087 209.579 131.992 211.197C131.92 212.924 140.358 217.699 141.449 217.757L141.435 217.75Z" fill="#231F20"/>
<path d="M127.308 208.587C128.515 208.587 130.29 206.597 131.425 204.629C132.4 202.945 132.771 201.568 132.414 200.941C131.512 199.381 68.793 164.378 66.6179 164.233C64.9157 164.233 62.5733 166.018 61.0748 167.79C59.8745 169.248 59.2781 170.509 59.4236 171.369C59.7 173.06 92.1581 190.32 120.419 205.088C124.114 207.027 126.493 208.281 126.828 208.471C126.975 208.551 127.14 208.591 127.308 208.587V208.587Z" fill="#231F20"/>
<path d="M54.237 168.766C54.9644 168.766 56.8775 166.201 57.9614 164.473C58.6889 163.365 59.7727 161.404 59.4163 160.69C58.7907 159.363 52.1419 155.952 50.5052 155.85C48.8685 155.748 45.2968 161.361 45.2095 163.066C45.2391 163.416 45.4035 163.74 45.6678 163.97C47.319 165.807 53.3204 168.723 54.2005 168.766H54.237Z" fill="#231F20"/>
<path d="M41.2231 161.193C41.4516 161.2 41.6784 161.152 41.8851 161.054C43.5727 160.158 47.2899 154.902 46.9116 153.525C46.5333 152.147 41.0267 148.422 38.7498 148.32C36.3275 148.32 33.1268 154.152 32.5085 155.609C32.4581 155.789 32.4536 155.979 32.4956 156.161C32.5375 156.343 32.6245 156.512 32.7485 156.652C33.9706 158.474 39.0335 161.178 41.2231 161.178V161.193Z" fill="#231F20"/>
<path d="M48.9631 149.829C49.1861 149.836 49.4076 149.791 49.6105 149.698C51.269 148.809 54.9207 143.648 54.5497 142.292C54.1787 140.936 48.7739 137.292 46.5479 137.19C44.1547 137.19 41.0195 142.904 40.423 144.37C40.3732 144.545 40.3677 144.73 40.4071 144.908C40.4465 145.086 40.5294 145.252 40.6485 145.39C41.8414 147.176 46.8243 149.844 48.9848 149.844L48.9631 149.829Z" fill="#231F20"/>
<path d="M58.3179 139.653C58.5149 139.681 58.7156 139.658 58.9013 139.586C59.087 139.515 59.2516 139.398 59.3799 139.245C59.7727 138.655 60.5365 137.787 61.3658 136.803C63.1625 134.733 65.1993 132.372 64.9084 131.395C64.5083 130.024 58.2887 126.059 55.8009 125.921C53.1676 125.921 49.5304 131.818 48.7229 133.691C48.669 133.861 48.66 134.043 48.697 134.218C48.734 134.393 48.8156 134.556 48.9339 134.689C50.2142 136.636 55.91 139.653 58.3179 139.653Z" fill="#231F20"/>
<path d="M66.7561 128.829C67.3671 128.829 69.2221 127.116 70.5678 125.527C71.4262 124.499 73.4121 121.963 73.143 120.425C72.7065 117.771 65.7376 115.023 64.2609 114.929C62.5151 114.929 57.714 121.89 57.6267 123.442C57.6539 123.752 57.7999 124.04 58.0341 124.244C59.5981 125.986 65.8759 128.814 66.7634 128.865L66.7561 128.829Z" fill="#231F20"/>
<path d="M180.141 189.366C180.978 189.366 183.509 185.196 186.135 180.692C186.477 180.094 186.725 179.664 186.819 179.518C186.172 177.914 178.817 173.687 177.086 173.606C175.158 173.606 169.921 180.961 169.812 182.601C169.724 184.373 178.948 189.307 180.105 189.366H180.141Z" fill="#231F20"/>
<path d="M167.048 180.99C168.241 180.99 173.754 172.491 173.805 172.411C173.18 170.851 166.051 166.784 164.349 166.696C162.494 166.696 157.424 173.811 157.336 175.443C157.249 177.164 166.066 180.969 167.004 181.027L167.048 180.99Z" fill="#231F20"/>
<path d="M171.368 200.081C171.561 200.107 171.757 200.083 171.938 200.012C172.119 199.94 172.279 199.824 172.401 199.673C172.998 198.848 173.637 198.055 174.315 197.296C176.039 195.263 177.988 192.967 177.719 192.019C177.341 190.678 171.361 186.814 168.99 186.683C166.48 186.683 162.974 192.442 162.181 194.271C162.134 194.443 162.129 194.624 162.167 194.797C162.205 194.971 162.285 195.134 162.399 195.27C163.658 197.165 169.113 200.081 171.383 200.081H171.368Z" fill="#231F20"/>
<path d="M158.311 193.214C158.52 193.218 158.726 193.173 158.915 193.083C160.682 192.179 165.775 186.253 165.367 184.839C164.96 183.425 159.009 179.627 156.638 179.496C154.019 179.496 150.629 185.437 149.982 186.946C149.924 187.175 149.923 187.415 149.979 187.645C150.035 187.875 150.146 188.088 150.302 188.265C151.67 190.342 156.318 193.214 158.304 193.214H158.311Z" fill="#231F20"/>
<path d="M163.265 214.244C164.094 214.244 166.633 210.074 169.244 205.577C169.594 204.972 169.834 204.549 169.935 204.396C169.288 202.792 161.934 198.565 160.195 198.484C158.275 198.484 153.037 205.839 152.921 207.487C152.958 207.849 153.129 208.185 153.401 208.427C155.212 210.439 162.217 214.193 163.221 214.258L163.265 214.244Z" fill="#231F20"/>
<path d="M144.461 185.575C145.086 185.575 146.927 183.862 148.265 182.266C149.131 181.253 151.109 178.709 150.84 177.164C150.404 174.51 143.435 171.762 141.951 171.675C140.198 171.675 135.404 178.629 135.331 180.181C135.355 180.489 135.495 180.776 135.724 180.983C137.288 182.725 143.573 185.553 144.453 185.604L144.461 185.575Z" fill="#231F20"/>
<path d="M154.492 224.966C154.683 224.992 154.878 224.968 155.058 224.896C155.238 224.825 155.396 224.708 155.518 224.558C156.12 223.729 156.763 222.931 157.445 222.167C159.162 220.141 161.082 217.859 160.835 216.912C160.42 215.512 154.521 211.7 152.106 211.568C149.567 211.568 146.083 217.327 145.312 219.164C145.263 219.335 145.257 219.516 145.295 219.691C145.333 219.865 145.414 220.027 145.53 220.162C146.767 222.043 152.23 224.966 154.514 224.966H154.492Z" fill="#231F20"/>
<path d="M149.727 204.848C149.978 204.863 150.228 204.816 150.455 204.709C152.252 203.755 156.274 198.149 155.83 196.655C155.387 195.161 149.531 191.224 147.101 191.093C144.504 191.093 141.085 197.318 140.431 198.907C140.378 199.099 140.374 199.3 140.418 199.493C140.463 199.687 140.554 199.866 140.685 200.015C141.987 201.961 147.407 204.848 149.749 204.848H149.727Z" fill="#231F20"/>
<path d="M141.435 217.75C142.111 217.75 144.257 214.834 145.566 212.742C146.294 211.583 147.96 208.799 147.589 208.026C146.963 206.692 140.314 202.479 138.67 202.391C136.917 202.391 132.087 209.579 131.992 211.197C131.92 212.924 140.358 217.699 141.449 217.757L141.435 217.75Z" fill="#231F20"/>
<path d="M138.67 165.596C139.878 165.596 145.479 156.958 145.537 156.849C144.897 155.267 137.637 151.119 135.935 151.017C134.051 151.017 128.894 158.306 128.806 159.881C128.763 160.836 131.229 162.294 133.316 163.365C135.017 164.275 136.806 165.008 138.656 165.552L138.67 165.596Z" fill="#231F20"/>
<path d="M136.423 197.479C136.618 197.504 136.817 197.48 137.002 197.409C137.186 197.337 137.349 197.221 137.477 197.07C138.107 196.199 138.782 195.362 139.5 194.563C141.296 192.493 143.326 190.138 143.035 189.169C142.613 187.711 136.488 183.833 133.927 183.687C131.272 183.687 127.65 189.584 126.842 191.465C126.794 191.636 126.787 191.816 126.824 191.99C126.861 192.164 126.94 192.327 127.053 192.464C128.341 194.41 134.037 197.428 136.437 197.428L136.423 197.479Z" fill="#231F20"/>
<path d="M130.341 177.637C130.533 177.662 130.729 177.637 130.908 177.564C131.088 177.492 131.246 177.374 131.367 177.222C131.745 176.646 132.487 175.764 133.287 174.831C135.011 172.805 136.924 170.516 136.684 169.568C136.284 168.169 130.385 164.364 127.955 164.225C125.438 164.225 121.939 169.991 121.146 171.821C121.101 171.993 121.098 172.174 121.137 172.348C121.176 172.521 121.257 172.683 121.372 172.819C122.623 174.707 128.079 177.637 130.356 177.637H130.341Z" fill="#231F20"/>
<path d="M124.747 158.117C125.351 158.117 127.206 156.404 128.559 154.8C129.417 153.787 131.396 151.258 131.127 149.698C130.69 147.045 123.721 144.289 122.238 144.202C120.492 144.202 115.691 151.156 115.618 152.708C115.627 152.862 115.666 153.013 115.734 153.152C115.801 153.291 115.895 153.415 116.011 153.517C117.582 155.252 123.852 158.08 124.74 158.132L124.747 158.117Z" fill="#231F20"/>
<path d="M122.252 189.825C122.503 189.838 122.753 189.788 122.98 189.679C124.769 188.724 128.748 183.119 128.348 181.617C127.948 180.116 121.998 176.187 119.619 176.063C117.022 176.063 113.603 182.288 112.955 183.87C112.902 184.061 112.895 184.263 112.937 184.457C112.979 184.652 113.068 184.833 113.196 184.985C114.498 186.924 119.924 189.825 122.274 189.825H122.252Z" fill="#231F20"/>
<path d="M107.747 182.733C107.945 182.76 108.147 182.735 108.333 182.661C108.519 182.587 108.683 182.466 108.809 182.31C109.202 181.727 109.973 180.852 110.81 179.861C112.614 177.798 114.643 175.443 114.345 174.474C113.937 173.089 107.711 169.124 105.237 169C102.604 169 98.9669 174.889 98.1521 176.77C98.1036 176.94 98.0974 177.119 98.1342 177.292C98.171 177.465 98.2495 177.626 98.363 177.761C99.6433 179.715 105.346 182.733 107.747 182.733Z" fill="#231F20"/>
<path d="M78.024 165.953C78.6278 165.953 80.49 164.24 81.8358 162.651C82.6941 161.63 84.6728 159.094 84.4036 157.548C83.9672 154.873 76.9984 152.147 75.5144 152.067C73.7613 152.067 68.9674 159.006 68.8947 160.559C68.9198 160.868 69.06 161.157 69.2875 161.368C70.8588 163.11 77.1365 165.946 78.0167 165.989L78.024 165.953Z" fill="#231F20"/>
<path d="M102.4 162.447C102.651 162.462 102.902 162.412 103.128 162.301C104.925 161.339 108.947 155.741 108.504 154.283C108.06 152.825 102.219 148.852 99.7744 148.714C97.1702 148.714 93.7512 154.932 93.1038 156.528C93.0491 156.72 93.0438 156.923 93.0883 157.118C93.1328 157.313 93.2257 157.494 93.3583 157.643C94.6605 159.589 100.087 162.483 102.422 162.483L102.4 162.447Z" fill="#231F20"/>
<path d="M93.4165 175.385C94.0858 175.385 96.2099 172.469 97.4974 170.45C98.2249 169.269 99.9416 166.448 99.5706 165.654C98.9523 164.327 92.2962 160.114 90.6522 160.027C88.8918 160.027 84.069 167.221 83.9817 168.832C83.8944 170.443 92.3399 175.327 93.3947 175.392L93.4165 175.385Z" fill="#231F20"/>
<path d="M71.9062 147.817C72.0988 147.842 72.2945 147.818 72.4752 147.746C72.6558 147.675 72.8155 147.559 72.9392 147.409C73.3175 146.841 74.0449 145.951 74.8524 145.033C76.5837 143.006 78.5332 140.71 78.2568 139.763C77.8713 138.414 71.899 134.544 69.5276 134.42C66.9889 134.42 63.5044 140.178 62.7333 142.008C62.6844 142.179 62.6788 142.36 62.7169 142.535C62.755 142.709 62.8356 142.871 62.9516 143.006C64.1955 144.894 69.6512 147.817 71.9208 147.817H71.9062Z" fill="#231F20"/>
<path d="M109.318 150.981C109.929 150.981 111.806 149.246 113.159 147.635C114.018 146.622 115.967 144.1 115.698 142.533C115.254 139.872 108.3 137.117 106.816 137.037C105.07 137.037 100.269 143.983 100.189 145.543C100.109 147.103 108.416 150.908 109.296 150.966L109.318 150.981Z" fill="#231F20"/>
<path d="M86.004 154.771C86.2549 154.786 86.5056 154.736 86.7314 154.625C88.5282 153.671 92.5072 148.065 92.1072 146.607C91.7071 145.15 85.8148 141.177 83.3779 141.038C80.7883 141.038 77.3693 147.249 76.7146 148.845C76.6584 149.038 76.6516 149.242 76.6948 149.438C76.738 149.634 76.83 149.816 76.962 149.968C78.2641 151.914 83.6835 154.8 86.0258 154.8L86.004 154.771Z" fill="#231F20"/>
<path d="M58.3179 139.653C58.5149 139.681 58.7156 139.658 58.9013 139.586C59.087 139.515 59.2516 139.398 59.3799 139.245C59.7727 138.655 60.5365 137.787 61.3658 136.803C63.1625 134.733 65.1993 132.372 64.9084 131.395C64.5083 130.024 58.2887 126.059 55.8009 125.921C53.1676 125.921 49.5304 131.818 48.7229 133.691C48.669 133.861 48.66 134.043 48.697 134.218C48.734 134.393 48.8156 134.556 48.9339 134.689C50.2142 136.636 55.91 139.653 58.3179 139.653Z" fill="#231F20"/>
<path d="M152.957 173.351C153.207 173.357 153.456 173.307 153.685 173.206C155.656 172.2 160.02 166.303 159.584 164.75C159.148 163.197 152.579 159.013 149.967 158.919C147.101 158.919 143.37 165.435 142.693 167.112C142.637 167.299 142.629 167.497 142.67 167.688C142.711 167.879 142.799 168.057 142.926 168.205C144.264 170.246 150.353 173.388 152.964 173.388L152.957 173.351Z" fill="#231F20"/>
<path d="M117.291 170.421C117.975 170.421 120.15 167.454 121.466 165.319C122.194 164.174 123.816 161.426 123.445 160.661C122.827 159.327 116.171 155.121 114.541 155.026C112.774 155.026 107.951 162.221 107.856 163.832C107.762 165.443 116.214 170.326 117.313 170.392L117.291 170.421Z" fill="#231F20"/>
<path d="M66.7561 128.829C67.3671 128.829 69.2221 127.116 70.5751 125.52C71.4262 124.499 73.4121 121.955 73.143 120.417C72.7065 117.764 65.7376 115.016 64.2609 114.921C62.5151 114.921 57.714 121.882 57.6267 123.435C57.6539 123.745 57.7999 124.032 58.0341 124.237C59.5981 125.979 65.8759 128.807 66.7634 128.858L66.7561 128.829Z" fill="#231F20"/>
<path d="M41.2231 161.193C41.4516 161.2 41.6784 161.152 41.8851 161.054C43.5727 160.158 47.2899 154.902 46.9116 153.525C46.5333 152.147 41.0267 148.422 38.7498 148.32C36.3275 148.32 33.1268 154.152 32.5085 155.609C32.4581 155.789 32.4536 155.979 32.4956 156.161C32.5375 156.343 32.6245 156.512 32.7485 156.652C33.9706 158.474 39.0335 161.178 41.2231 161.178V161.193Z" fill="#231F20"/>
<path d="M54.237 168.766C54.9644 168.766 56.8848 166.193 57.9687 164.458C58.6961 163.358 59.7727 161.404 59.4236 160.69C58.798 159.363 52.1492 155.952 50.5125 155.85C48.8758 155.748 45.304 161.361 45.2167 163.066C45.2464 163.416 45.4108 163.74 45.675 163.97C47.3263 165.807 53.3276 168.723 54.2078 168.766H54.237Z" fill="#231F20"/>
<path d="M94.8642 143.539C95.0558 143.566 95.2512 143.542 95.4311 143.471C95.6109 143.399 95.7691 143.282 95.8899 143.13C96.2681 142.562 97.0029 141.709 97.803 140.761C99.5343 138.735 101.484 136.432 101.207 135.484C100.815 134.099 94.9151 130.28 92.4782 130.141C89.954 130.141 86.4477 135.907 85.6694 137.729C85.6215 137.901 85.6171 138.083 85.6564 138.257C85.6958 138.431 85.7777 138.593 85.8949 138.728C87.1388 140.616 92.5946 143.539 94.8714 143.539H94.8642Z" fill="#231F20"/>
<path d="M79.4935 137.197C80.1191 137.197 81.9522 135.477 83.2979 133.895C84.1636 132.867 86.135 130.331 85.8658 128.793C85.4293 126.139 78.4605 123.391 76.9839 123.304C75.238 123.304 70.4369 130.258 70.3568 131.81C70.3688 131.964 70.4109 132.114 70.4808 132.252C70.5507 132.389 70.647 132.512 70.7642 132.612C72.3282 134.354 78.5987 137.182 79.4935 137.233V137.197Z" fill="#231F20"/>
<path d="M48.9631 149.829C49.1861 149.836 49.4076 149.791 49.6105 149.698C51.269 148.809 54.9207 143.648 54.5497 142.292C54.1787 140.936 48.7739 137.292 46.5479 137.19C44.1547 137.19 41.0195 142.904 40.423 144.37C40.3732 144.545 40.3677 144.73 40.4071 144.908C40.4465 145.086 40.5294 145.252 40.6485 145.39C41.8414 147.176 46.8243 149.844 48.9848 149.844L48.9631 149.829Z" fill="#231F20"/>
<path d="M62.6025 157.701C62.7887 157.726 62.978 157.703 63.1533 157.636C63.3286 157.568 63.4843 157.458 63.6063 157.315C64.1844 156.523 64.8035 155.761 65.4612 155.034C67.1271 153.102 69.0257 150.923 68.7493 150.004C68.3564 148.67 62.6315 145.033 60.2673 144.902C57.8304 144.902 54.4479 150.39 53.6695 152.14C53.6246 152.301 53.6204 152.47 53.6572 152.633C53.694 152.796 53.7708 152.947 53.8805 153.073C55.0662 154.895 60.3692 157.701 62.6097 157.701H62.6025Z" fill="#231F20"/>
<path d="M127.308 208.587C128.515 208.587 130.29 206.597 131.425 204.629C132.4 202.938 132.771 201.568 132.414 200.941C131.512 199.381 68.793 164.378 66.6179 164.233C64.9157 164.233 62.5733 166.018 61.0748 167.79C59.8745 169.248 59.2781 170.509 59.4236 171.369C59.7 173.06 92.1581 190.32 120.419 205.088C124.114 207.027 126.493 208.281 126.828 208.471C126.975 208.551 127.14 208.591 127.308 208.587V208.587Z" fill="#231F20"/>
<path d="M211.799 178.308C213.194 178.331 214.573 178.018 215.822 177.397C219.081 175.742 220.245 171.5 221.176 168.103L221.467 167.061C224.224 157.395 226.872 147.686 229.512 137.992C230.841 133.098 232.175 128.209 233.513 123.326C234.524 119.681 235.623 115.985 236.714 112.304C239.384 103.324 242.141 94.0304 243.675 84.7513C243.799 84.0224 243.945 83.257 244.097 82.4552C244.745 78.9491 245.494 74.9692 244.701 71.7255C244.032 68.9775 241.791 67.1844 239.609 65.4496C238.691 64.7502 237.814 63.9981 236.983 63.1972C236.892 63.0933 236.78 63.0093 236.655 62.9504C236.53 62.8914 236.394 62.8589 236.256 62.8546C236.078 62.8633 235.907 62.9258 235.766 63.0338C235.624 63.1418 235.518 63.2903 235.463 63.4596C235.369 63.6894 235.344 63.9417 235.392 64.1853C235.44 64.4289 235.558 64.653 235.732 64.83C236.552 65.6294 237.416 66.3814 238.322 67.0823C238.947 67.5926 239.573 68.0955 240.184 68.6422C242.439 70.6759 242.795 73.0157 242.628 76.0918C242.356 80.6016 241.669 85.0767 240.577 89.4601C238.874 96.4723 236.845 103.55 234.895 110.402C233.942 113.719 232.997 117.035 232.08 120.352L230.48 126.183L223.053 153.153C222.602 154.793 222.173 156.433 221.743 158.073C220.798 161.718 219.816 165.479 218.608 169.095C217.655 171.937 216.506 174.802 213.756 175.742C213.017 175.987 212.243 176.11 211.465 176.107C209.119 175.988 206.836 175.306 204.809 174.117C204.647 174.021 204.465 173.966 204.278 173.956C204.087 173.963 203.905 174.035 203.761 174.159C203.617 174.284 203.519 174.454 203.485 174.642C203.406 174.916 203.422 175.208 203.528 175.472C203.635 175.737 203.827 175.957 204.074 176.099C206.434 177.472 209.094 178.243 211.821 178.344L211.799 178.308Z" fill="#231F20"/>
<path d="M208.097 176.245C205.565 176.245 202.852 175.072 200.669 174.131L200.269 173.964C193.679 171.121 187.292 167.498 181.109 163.992C178.97 162.782 176.831 161.565 174.686 160.347C155.983 150.07 136.488 140.667 117.626 131.526C106.176 125.986 94.3477 120.264 82.796 114.404L81.1083 113.551C74.5614 110.249 67.8617 106.823 61.6567 102.792L60.7911 102.26C58.9798 101.145 56.5138 99.6213 55.9173 97.6823C55.3717 95.8746 56.1864 93.4109 56.9066 91.246C57.1466 90.4733 57.3794 89.7881 57.5321 89.1685C59.8454 79.7412 62.1805 70.3187 64.5373 60.9011C65.8031 55.7987 67.0107 50.6963 68.2401 45.5938C71.3171 32.7066 74.496 19.3892 78.4241 6.58211L78.5623 6.13748C79.2897 3.67374 80.3372 0.306146 83.3779 0C83.5525 0 83.7344 0 83.9162 0C86.7532 0 90.0558 1.88789 92.9874 3.54983C94.1664 4.24827 95.3804 4.88569 96.6246 5.45959C100.684 7.20899 104.823 8.80531 108.94 10.4089L112.388 11.7502C123.874 16.2549 135.419 20.6503 146.97 25.0529C173.107 35.0172 200.153 45.3168 226.152 56.7317L226.683 56.9722C228.087 57.5918 229.498 58.2041 230.829 58.9403L231.229 59.1736C234.866 61.3603 239.405 64.0573 240.213 68.6495C241.166 73.9925 239.107 80.3122 237.303 85.8082C236.707 87.6451 236.125 89.4018 235.681 91.0492L234.677 94.7958C232.211 103.936 229.658 113.383 227.563 122.801C225.431 132.415 222.805 143.801 219.561 155.289C218.337 159.951 216.865 164.545 215.153 169.051L214.884 169.78C214.156 171.689 213.218 174.066 211.53 175.276C210.518 175.982 209.307 176.345 208.075 176.311L208.097 176.245ZM84.2145 2.52932C82.2068 2.52932 81.4721 4.3079 80.6573 6.82266C80.1117 8.49189 79.6753 10.1903 79.2025 11.8741L78.926 12.9164C76.8237 20.7887 74.8233 28.6975 72.8301 36.599L72.3864 38.3411C67.8424 56.3599 63.3541 74.4007 58.9216 92.4633C58.827 92.8423 58.6743 93.3015 58.507 93.7972C58.1142 94.9562 57.6631 96.2682 57.9396 97.2741C58.0425 97.4514 58.1567 97.6218 58.2814 97.7844C59.9254 100.022 63.0971 101.677 65.8905 103.135C66.6179 103.528 67.3452 103.864 67.9927 104.264C83.4288 113.011 99.7889 120.731 115.589 128.166C124.318 132.262 133.302 136.505 142.038 140.871C153.314 146.498 165.207 152.803 180.592 161.317C182.105 162.155 183.626 163.015 185.153 163.883C190.645 167.002 196.334 170.224 202.241 172.542C203.848 173.274 205.572 173.713 207.333 173.84C209.471 173.84 210.97 172.717 212.178 170.195C215.516 163.146 217.466 155.245 219.35 147.599L220.339 143.597C222.434 135.302 224.442 126.664 226.493 117.203C228.399 108.397 230.858 99.5556 233.266 91.0127C234.364 87.0984 235.448 83.1841 236.51 79.2626L236.91 77.8047C237.769 74.7797 238.751 71.3465 237.958 68.3288C237.107 65.107 233.593 63.0296 230.771 61.3676L230.08 60.9667C221.889 56.3381 212.621 52.9486 203.696 49.6102C200.269 48.3419 196.88 47.0808 193.562 45.7761C174.455 38.1953 155.299 30.7044 136.095 23.3035L133.185 22.1737C129.548 20.7158 125.911 19.3673 122.23 17.9751C113.123 14.5273 103.71 10.9556 94.6823 6.94657C93.5475 6.45819 92.4272 5.88964 91.307 5.3138C89.6743 4.43883 87.9909 3.66237 86.2658 2.98855C85.5872 2.71308 84.8661 2.5577 84.1345 2.52932H84.2145Z" fill="#231F20"/>
<path d="M202.015 154.348C201.842 154.345 201.672 154.308 201.513 154.239C177.69 143.611 153.983 131.599 131.047 119.98C119.051 113.901 106.649 107.588 94.3985 101.611L91.0814 99.9784C85.4729 97.2304 79.6899 94.3731 73.8922 91.7854C73.6358 91.6521 73.4328 91.4345 73.3176 91.169C73.2024 90.9035 73.1817 90.6064 73.2593 90.3276L82.0903 53.7869L90.9287 17.2535C90.9765 17.0673 91.0895 16.9045 91.247 16.7948C91.4046 16.6851 91.5963 16.6357 91.7871 16.6558C91.9566 16.654 92.1247 16.6863 92.2817 16.7505L149.684 40.7101L207.056 64.6842L216.637 68.6933L223.38 71.5069C223.86 71.711 224.107 72.1702 224.02 72.9647L213.465 113.347L202.881 153.743C202.829 153.929 202.714 154.091 202.557 154.202C202.399 154.312 202.207 154.364 202.015 154.348V154.348ZM92.8127 19.2289C92.6647 20.222 92.4211 21.1985 92.0853 22.1446C91.9034 22.684 91.7361 23.2015 91.627 23.6461L90.1721 29.7034L86.775 43.757L76.3218 86.9673C76.22 87.4046 76.1036 87.842 75.9727 88.2866C75.8152 88.9202 75.6258 89.5455 75.4052 90.1599C76.0657 90.3871 76.7037 90.675 77.3111 91.02L78.2204 91.4866C83.3125 93.8555 88.3317 96.3266 93.3583 98.7757L95.1478 99.6504C108.795 106.337 122.422 113.07 136.03 119.849L144.963 124.288L153.99 128.763C167.36 135.411 181.196 142.292 194.886 148.845C195.279 149.035 195.832 149.355 196.458 149.734C197.913 150.616 199.978 151.819 201.07 151.819L201.157 151.921C201.195 151.525 201.285 151.135 201.426 150.762C202.015 148.991 202.466 147.118 202.881 145.324C203.085 144.442 203.296 143.56 203.521 142.693L205.376 135.615L207.224 128.552L221.772 73.1542L159.94 47.3214L115.72 28.836L100.218 22.3195C99.4324 21.9915 98.5231 21.6926 97.592 21.3719C95.8933 20.9032 94.2748 20.1807 92.7909 19.2289H92.8127Z" fill="#231F20"/>
<path d="M193.235 133.385C193.412 133.386 193.583 133.324 193.717 133.209C193.85 133.093 193.938 132.933 193.963 132.758L206.067 88.3449C206.152 88.0183 206.106 87.6713 205.939 87.3783C205.772 87.0854 205.496 86.8697 205.172 86.7777C201.681 85.677 198.225 84.3213 194.879 83.0092C191.533 81.6972 188.085 80.3486 184.6 79.2553H184.499C183.924 79.2553 183.582 79.5031 183.487 79.8384C181.545 86.9818 179.552 94.1252 177.566 101.254C175.58 108.383 173.587 115.519 171.652 122.67C171.606 122.851 171.603 123.04 171.643 123.222C171.684 123.405 171.767 123.575 171.885 123.719C172.005 123.883 172.159 124.018 172.336 124.116C172.513 124.214 172.709 124.273 172.911 124.288C173.087 124.29 173.258 124.227 173.392 124.112C173.526 123.996 173.613 123.836 173.638 123.661C175.66 116.241 177.714 108.827 179.799 101.422L181.865 94.0086L182.782 90.7139L183.938 86.5226C184.004 86.2675 184.069 85.9395 184.142 85.5969C184.368 84.4452 184.681 82.878 185.51 82.3896C185.79 82.229 186.111 82.1507 186.434 82.1636C187.665 82.3087 188.857 82.6872 189.947 83.2789C190.311 83.4466 190.638 83.5996 190.907 83.7017L194.545 85.1085C197.578 86.2966 200.713 87.5358 203.856 88.5709L197.309 112.268L191.999 131.774C191.953 131.955 191.951 132.144 191.991 132.326C192.032 132.508 192.114 132.679 192.231 132.823C192.352 132.985 192.506 133.119 192.683 133.216C192.86 133.313 193.056 133.37 193.257 133.385H193.235Z" fill="#231F20"/>
<path d="M196.683 137.058C196.87 137.05 197.049 136.979 197.19 136.856C197.332 136.732 197.427 136.565 197.462 136.381C197.539 136.108 197.524 135.818 197.421 135.554C197.317 135.291 197.129 135.069 196.887 134.923C193.126 132.736 189.14 130.768 185.248 128.873L181.269 126.897C164.582 118.5 146.781 109.68 125.256 99.1985C121.619 97.4345 118.048 95.5539 114.425 93.7462C105.499 89.1686 96.2391 84.4525 86.8624 80.9026C86.7198 80.852 86.57 80.8249 86.4187 80.8225C86.1862 80.8253 85.9624 80.9113 85.7876 81.0651C85.6129 81.2188 85.4987 81.43 85.4657 81.6607C85.4151 81.9111 85.4555 82.1714 85.5796 82.3946C85.7036 82.6178 85.9032 82.7892 86.1423 82.878C90.1432 84.3869 94.1004 86.3331 97.9121 88.221C99.2797 88.9061 100.655 89.5768 102.022 90.2328C121.794 99.7087 141.5 109.454 158.158 117.728C161.701 119.484 165.287 121.205 168.873 122.932C177.952 127.306 187.328 131.81 196.101 136.92C196.264 137.026 196.453 137.084 196.647 137.088L196.683 137.058Z" fill="#231F20"/>
<path d="M164.763 118.289C164.937 118.282 165.104 118.216 165.236 118.103C165.368 117.989 165.458 117.833 165.491 117.662C168.229 107.808 171.542 98.1235 175.413 88.6583C175.491 88.3787 175.47 88.0804 175.354 87.8145C175.237 87.5486 175.032 87.3316 174.773 87.2005C173.405 86.5445 171.979 85.801 170.503 85.0137C165.724 82.5208 160.319 79.7072 155.27 79.2261C155.087 79.2321 154.909 79.2918 154.759 79.3981C154.609 79.5043 154.493 79.6524 154.427 79.8239C150.942 86.6976 148.716 94.4605 146.563 101.961C146.003 103.915 145.45 105.853 144.875 107.756C144.826 107.934 144.819 108.121 144.856 108.302C144.893 108.484 144.972 108.654 145.086 108.798C145.203 108.965 145.356 109.103 145.534 109.203C145.711 109.303 145.909 109.361 146.112 109.374C146.291 109.373 146.464 109.311 146.602 109.199C146.741 109.086 146.838 108.93 146.876 108.755C148.205 104.333 149.584 99.9298 151.015 95.5466C152.04 92.3831 153.095 89.2342 154.245 86.1071C154.346 85.8228 154.448 85.4875 154.557 85.1231C154.762 84.1958 155.129 83.3122 155.641 82.5136C155.886 82.2359 156.085 81.9209 156.231 81.5805C156.487 81.7407 156.789 81.8101 157.089 81.7773C159.133 81.7773 161.941 83.2352 164.196 84.4525C165.069 84.9117 165.869 85.349 166.553 85.6479C167.069 85.8812 167.775 86.1144 168.524 86.3768C170.314 86.9964 172.518 87.7545 173.405 88.7895C173.558 88.9645 173.18 89.5184 172.78 90.0797C172.324 90.6966 171.936 91.3614 171.623 92.0624C170.576 94.7448 169.579 97.4345 168.626 100.153C166.837 105.256 165.149 110.679 163.49 116.634C163.442 116.815 163.438 117.005 163.479 117.188C163.519 117.37 163.603 117.54 163.723 117.684C163.839 117.849 163.991 117.987 164.167 118.085C164.344 118.184 164.54 118.241 164.741 118.252L164.763 118.289Z" fill="#231F20"/>
<path d="M139.209 105.329C139.383 105.322 139.549 105.256 139.681 105.142C139.814 105.029 139.903 104.873 139.936 104.702C142.031 97.2158 144.49 89.7007 146.876 82.4406C149.262 75.1806 151.699 67.6655 153.801 60.1795C153.875 59.8989 153.85 59.6016 153.733 59.3366C153.615 59.0716 153.411 58.8547 153.154 58.7217L132.545 49.7487C132.387 49.6885 132.22 49.6564 132.051 49.6539C131.861 49.6403 131.672 49.6911 131.515 49.7983C131.358 49.9054 131.242 50.0626 131.185 50.2443L124.696 72.3378L118.215 94.4313C118.164 94.6093 118.156 94.7969 118.193 94.9784C118.23 95.1598 118.31 95.3297 118.426 95.4737C118.544 95.639 118.698 95.7762 118.875 95.8757C119.052 95.9752 119.249 96.0345 119.451 96.0495C119.625 96.0415 119.791 95.9754 119.923 95.8618C120.055 95.7482 120.145 95.5936 120.179 95.4227L122.98 85.8739L125.787 76.3323L130.05 61.805C130.276 61.076 130.639 60.1358 131.032 59.1298C131.971 56.7536 133.04 54.0711 132.865 52.227C133.433 52.504 134.204 52.8247 134.975 53.1308L136.335 53.6994L142.882 56.5276L149.429 59.3704L149.953 59.5453C150.637 59.7786 152.23 60.2742 152.368 60.6168C151.757 60.6168 149.618 66.9001 149.589 66.9657C148.803 69.5534 147.981 72.1264 147.145 74.6995L145.006 81.2598C142.598 88.6 140.111 96.1953 137.994 103.761C137.946 103.941 137.943 104.13 137.983 104.311C138.024 104.493 138.107 104.662 138.227 104.804C138.343 104.97 138.495 105.107 138.671 105.207C138.847 105.307 139.043 105.366 139.245 105.38L139.209 105.329Z" fill="#231F20"/>
<path d="M110.882 93.7243C111.058 93.7263 111.228 93.6647 111.362 93.5508C111.495 93.437 111.583 93.2785 111.61 93.1047C113.414 86.6611 115.523 80.2028 117.567 73.956C119.611 67.7092 121.721 61.2437 123.518 54.8074C123.592 54.5276 123.569 54.2309 123.453 53.966C123.336 53.7011 123.134 53.4837 122.878 53.3495L102.91 44.741C102.75 44.6744 102.58 44.6397 102.408 44.6389C102.218 44.6261 102.03 44.6783 101.874 44.7869C101.718 44.8956 101.603 45.0542 101.549 45.2367L95.7297 64.0282L89.9103 82.8342C89.8582 83.0104 89.8497 83.1966 89.8851 83.3769C89.9206 83.5571 89.9991 83.7261 90.114 83.8693C90.228 84.0374 90.3793 84.1769 90.5559 84.2768C90.7326 84.3767 90.9299 84.4343 91.1324 84.4452C91.3126 84.4473 91.4881 84.3867 91.6287 84.2737C91.7693 84.1607 91.8664 84.0024 91.9034 83.8256C93.191 79.6781 94.5586 75.5232 95.9335 71.3684C98.5522 63.4232 101.273 55.1937 103.368 47.0006C103.419 47.161 103.688 47.3068 104.037 47.5036C105.198 48.1142 106.398 48.6451 107.631 49.0926C108.242 49.3332 108.845 49.5737 109.427 49.8215C110.613 50.3318 111.85 50.8202 113.065 51.2794C115.554 52.1979 117.983 53.2715 120.339 54.4939L120.914 54.8001C121.379 55.0552 121.641 55.201 121.692 55.3103C121.743 55.4197 121.612 55.5363 121.459 55.7695C121.074 56.3249 120.752 56.9214 120.499 57.5481C119.6 59.8737 118.835 62.249 118.207 64.6623C117.778 66.1639 117.356 67.6655 116.876 69.116L116.076 71.5288C113.894 78.2494 111.581 85.1741 109.653 92.1134C109.606 92.2915 109.602 92.4781 109.642 92.658C109.681 92.8379 109.762 93.006 109.878 93.1485C109.997 93.3154 110.151 93.4537 110.33 93.5533C110.509 93.6529 110.707 93.7113 110.911 93.7243H110.882Z" fill="#231F20"/>
<path d="M153.692 269.015C156.049 269.015 158.1 267.848 159.97 265.443C164.16 260.056 167.971 254.123 171.609 248.372C173.427 245.514 175.246 242.664 177.108 239.887L194.566 213.857C196.145 211.488 197.825 209.141 199.52 206.772C203.259 201.539 207.122 196.13 210.003 190.459C212.287 185.954 212.912 179.89 207.864 176.376C207.668 176.231 207.432 176.149 207.187 176.143C206.97 176.148 206.76 176.221 206.587 176.352C206.413 176.483 206.285 176.665 206.22 176.872C206.159 177.086 206.17 177.314 206.25 177.522C206.33 177.73 206.475 177.906 206.664 178.024C212.912 182.397 207.958 189.767 204.685 194.672L204.445 195.029L195.716 208.041L177.704 234.93L172.336 242.948C168.325 248.964 164.3 254.971 160.261 260.967C158.078 264.255 156.209 266.58 152.848 266.58C151.948 266.57 151.054 266.433 150.193 266.172C149.727 265.991 149.289 265.745 148.891 265.443C148.694 265.304 148.483 265.166 148.294 265.057L146.49 263.97C126.595 252.016 106.481 239.632 87.0952 227.656C79.2098 222.796 71.322 217.937 63.4318 213.077L58.3906 209.987C45.0883 201.813 31.7835 193.654 18.4763 185.51C14.1117 182.849 9.79071 180.189 5.38245 177.565L4.80047 177.244C4.3904 177.03 3.99654 176.786 3.62203 176.515C3.54447 176.412 3.48846 176.294 3.45722 176.169C3.42598 176.044 3.42014 175.913 3.44017 175.786C3.30433 173.544 3.03471 171.312 2.63273 169.102C2.45087 167.994 2.28361 166.871 2.13812 165.771C2.09905 165.485 1.95681 165.223 1.73835 165.035C1.51989 164.847 1.24034 164.746 0.952399 164.75C0.815986 164.743 0.679719 164.767 0.553784 164.82C0.427849 164.873 0.315482 164.954 0.224964 165.056C0.13495 165.167 0.0695367 165.296 0.0331601 165.434C-0.00321641 165.573 -0.00974834 165.717 0.0139797 165.858C0.152192 166.842 0.195799 168.045 0.24672 169.32C0.355835 172.098 0.479566 175.239 1.49797 177.142C2.03628 178.17 3.24381 178.811 4.31314 179.38C4.64049 179.555 4.96049 179.729 5.24419 179.904C10.1253 182.82 14.9919 185.823 19.8511 188.797L23.0082 190.729C39.5791 200.875 56.1429 211.036 72.6993 221.212C90.8415 232.355 108.989 243.49 127.14 254.618C132.64 257.986 138.144 261.346 143.653 264.699L144.512 265.21C147.523 267.054 150.637 268.964 153.634 268.964L153.692 269.015Z" fill="#231F20"/>
<path d="M153.175 259.48C153.318 259.485 153.46 259.453 153.587 259.388C153.714 259.323 153.823 259.227 153.903 259.109C170.642 231.447 189.46 205.103 210.192 180.305C210.314 180.159 210.391 179.98 210.411 179.791C210.432 179.601 210.396 179.41 210.308 179.241C210.208 179.021 210.05 178.833 209.851 178.696C209.653 178.558 209.421 178.477 209.181 178.461C209.04 178.458 208.901 178.488 208.775 178.548C208.648 178.609 208.538 178.699 208.453 178.811C196.24 193.389 184.746 208.434 174.264 223.472C169.121 230.863 164.08 238.473 159.242 246.068C157.86 248.255 156.485 250.442 155.132 252.629C155.132 252.629 152.79 257.133 152.899 257.33C152.703 257.177 151.975 256.681 151.582 256.426C151.408 256.302 151.262 256.222 151.197 256.171C131.185 245.026 111.341 232.744 92.1509 220.862C85.8464 216.975 79.5274 213.087 73.1939 209.199C67.3308 205.613 61.4531 202.034 55.5609 198.463C38.1024 187.864 20.0621 176.894 2.64001 165.625C11.6456 155.624 20.6076 145.434 29.5551 135.214C35.7383 128.137 41.9215 121.051 48.0174 113.893C48.5557 113.267 49.2395 112.348 50.0251 111.299C52.8185 107.537 57.0376 101.823 60.3038 101.823H60.3619C61.0894 101.823 61.4022 101.538 61.424 101.094C61.43 100.75 61.3141 100.414 61.0971 100.148C60.8801 99.8807 60.5759 99.6995 60.2383 99.6358H59.7946C55.9683 99.6358 52.753 104.009 50.1706 107.559C49.4431 108.536 48.8103 109.432 48.1992 110.154C42.1906 117.268 36.0656 124.295 29.9334 131.293C20.0742 142.586 10.1763 153.846 0.239525 165.071C0.149621 165.167 0.0835776 165.283 0.0469222 165.41C0.0102668 165.537 0.0040054 165.67 0.0285409 165.8C0.0750403 166.011 0.163327 166.211 0.288276 166.387C0.413224 166.564 0.572295 166.714 0.755976 166.827C6.50998 170.581 12.3949 174.182 18.2144 177.761L23.4373 180.99C47.3699 195.787 71.9937 210.876 98.7124 227.167C103.55 230.083 108.387 233.115 113.261 236.133C126.02 244.071 139.223 252.293 152.688 259.32C152.848 259.402 153.025 259.444 153.204 259.444L153.175 259.48Z" fill="#231F20"/>
<path d="M95.6134 215.009C93.5402 215.009 91.1251 213.464 89.1828 212.225C88.6154 211.86 88.099 211.496 87.6407 211.27C78.4532 206.094 69.4112 200.482 60.1946 194.716C59.8698 194.511 59.6335 194.191 59.5326 193.819C59.4774 193.533 59.5377 193.237 59.7 192.996C61.7458 189.943 64.0794 187.095 66.6688 184.489L67.1635 183.964C67.9782 183.082 68.982 181.982 70.5024 181.829C72.4592 181.829 75.3107 183.564 77.5949 184.948C78.4023 185.444 79.1225 185.874 79.668 186.158C86.0331 189.38 91.1324 192.15 95.7298 194.847C96.2026 195.124 96.7554 195.43 97.3592 195.744C99.7452 197.019 102.72 198.608 103.979 201.058C104.04 201.213 104.063 201.38 104.044 201.546C104.284 205.351 100.691 213.507 96.7263 214.834C96.3675 214.953 95.9915 215.013 95.6134 215.009V215.009ZM101.935 201.458C101.04 199.731 97.9266 198.2 95.6716 197.085C94.9442 196.713 94.2167 196.356 93.722 196.079C89.8957 193.892 85.7202 191.64 80.7155 189.038C79.9881 188.659 79.1079 188.127 78.1768 187.58C75.8199 186.122 73.143 184.496 70.9534 184.358C68.1309 184.358 63.5481 191.312 62.0059 193.44C69.2802 198.018 75.8271 202.005 82.0031 205.642C82.9706 206.218 83.9526 206.816 84.9128 207.421C87.7241 209.294 90.6995 210.906 93.8021 212.239C94.3041 212.47 94.8441 212.606 95.3952 212.64C96.239 212.64 96.7627 212.079 97.8539 210.708C98.9451 209.338 102.218 204.877 101.906 201.488L101.935 201.458Z" fill="#231F20"/>
</svg>
