<svg width="299" height="134" viewBox="0 0 299 134" fill="none" xmlns="http://www.w3.org/2000/svg">
<path d="M19.6743 106.724C14.4606 111.317 10.7928 117.127 6.63598 122.696C6.24086 122.103 5.98419 120.449 5.32164 119.952C4.70242 119.487 4.15714 118.892 3.60774 118.343C2.86716 117.602 2.96039 116.495 3.05045 115.504C3.16296 114.266 3.60774 113.229 3.60774 111.95C3.60774 111.229 4.15854 110.01 4.46995 109.342C4.94401 108.326 5.45483 107.309 5.87892 106.272C6.35291 105.113 7.1589 104.022 7.77158 102.928C8.30307 101.979 8.85942 101.033 9.51703 100.173C11.9841 96.9472 15.7607 95.7066 19.0855 93.6963C22.9085 91.3847 26.5323 88.9949 30.9251 87.9763C34.1043 87.239 37.2604 86.4737 40.4725 85.8313C41.7664 85.5725 43.008 85.247 44.2893 84.948C45.2419 84.7258 46.2692 84.5175 47.244 84.4643C48.07 84.4193 48.7554 83.9278 49.5993 83.8965C52.4193 83.7921 55.3318 82.6429 58.0952 82.109C59.5666 81.8248 61.0858 82.0163 62.5324 81.7095C63.4606 81.5126 64.3752 81.3231 65.3083 81.1417C65.6738 81.0706 67.263 80.8794 67.201 80.9104C66.8286 81.0965 66.4434 81.2576 66.0654 81.4361C64.1011 82.3637 61.9823 82.9756 60.0089 83.8965C57.3844 85.1213 54.5738 86.2867 51.8494 87.2613C50.373 87.7894 48.8266 88.0862 47.3281 88.5441C46.256 88.8716 45.3171 89.5098 44.2893 89.9425C41.7842 90.9973 38.6852 91.3873 36.4348 92.9813C34.281 94.5069 32.0589 95.8374 29.9367 97.429C28.0769 98.8239 26.2586 100.424 24.6162 102.066C23.0076 103.675 21.3809 105.221 19.6743 106.724Z" fill="#EE3300"/>
<path d="M45.5023 24.853C63.5826 68.019 60.3874 99.9622 158.14 97.421C255.893 94.8797 251.404 73.3221 279.621 33.8921" stroke="#A4A4A4" stroke-width="3"/>
<path d="M286.139 21.1319L288.256 41.4302L268.772 32.3407L286.139 21.1319Z" fill="#333333"/>
<path d="M40.4874 9.00482L55.068 23.2844L34.2654 28.7162L40.4874 9.00482Z" fill="#333333"/>
<path d="M38.0528 86.4125C49.7984 84.7345 61.5472 81.6573 73.1959 79.4275C76.4306 82.6623 82.8603 88.9356 87.3404 89.643C88.7884 89.8716 90.6474 91.2001 92.0553 91.8258C92.7275 92.1246 95.2558 91.7008 94.4127 92.175C91.7735 93.6596 87.1402 94.8729 85.5942 97.5011C83.7884 100.571 80.7338 103.191 79.3077 106.756C78.124 109.716 74.9135 111.411 73.807 114.178C71.348 120.325 63.0173 125.204 57.4797 127.973C49.7176 131.854 42.1948 131.291 33.6435 131.291C24.9652 131.291 13.4102 129.215 7.18796 122.647C0.660056 115.756 6.14365 102.654 11.9028 97.5011C14.9677 94.7588 19.3096 93.5573 23.0788 92.0004C26.6005 90.5458 30.0126 88.8736 33.4689 87.2856C34.9883 86.5874 36.4464 86.6419 38.0528 86.4125Z" stroke="#A4A4A4" stroke-width="3" stroke-linecap="round"/>
<path d="M79.2984 85.605C72.667 89.6268 64.631 94.542 57.5413 97.5129C54.4304 98.8165 51.1672 99.9034 48.1157 101.298C44.5292 102.938 41.5704 104.603 38.3344 106.761" stroke="#A4A4A4" stroke-width="3" stroke-linecap="round"/>
</svg>
